<svg xmlns="http://www.w3.org/2000/svg" xml:space="preserve" width="76.799" height="76.799" fill-rule="evenodd" clip-rule="evenodd" image-rendering="optimizeQuality" shape-rendering="geometricPrecision" text-rendering="geometricPrecision" viewBox="0 0 799.99 799.99"><defs><style>.fil2{fill:#c40d12}.fil0{fill:#ec1b24}.fil1{fill:#f05759}</style></defs><g id="Layer_x0020_1"><path d="M669.33 165.11v136.1c-18.6 22.89-132.09 40.5-269.33 40.5-137.25 0-250.73-17.61-269.33-40.5v-136.1h.11c4.07 25.15 123.04 45.33 269.22 45.33s265.15-20.18 269.22-45.33h.11zM669.33 352.69V477.31h-.61c-9.24 24.32-126.01 43.56-268.72 43.56-142.72 0-259.48-19.24-268.72-43.56h-.61V352.69c18.56 22.9 132.06 40.52 269.33 40.52 137.28 0 250.78-17.63 269.33-40.52zM669.33 531.83V656.45h-.61c-9.24 24.32-126.01 43.56-268.72 43.56-142.72 0-259.48-19.24-268.72-43.56h-.61V531.83c18.56 22.9 132.06 40.52 269.33 40.52 137.28 0 250.78-17.63 269.33-40.52z" class="fil0"/><filter id="saturation"/><path d="M627.15 188.86v131.66c-48.66 12.77-132.21 21.2-227.15 21.2V210.44c95.47 0 179.32-8.61 227.15-21.59zm0 183.15v127.26c-47.82 12.98-131.68 21.59-227.15 21.59V393.21c94.94 0 178.5-8.43 227.15-21.2zm0 179.14v127.26l-2.27.61-.49.13-1.37.35-.89.22-1.94.48-2.42.59-2.16.5-.78.18-.11.03-.23.05-.11.03-.11.02-.11.03-.11.02-.11.03-.11.03-.11.02-.11.03-.04.01-.08.02-.11.03-.11.02-.12.03-.11.02-.11.03-.11.02-.12.03-.11.02-.12.03-.11.02-.11.03-.12.02-.11.03-.12.02-.11.03-.12.02-.11.03-.12.02-.12.03-.11.02-.12.03-.12.02-.11.03-.12.02-.12.03-.12.02-.12.02-.12.03-.11.02-.12.03-.24.05-.04.01-.55.11-.12.02-.12.03-.12.02-.12.02-.12.03-.12.02-.24.05-.12.02-.12.03-.12.02-.46.1-2.46.51-2.72.54-1.96.38-.45.09-.59.11-.55.1-2.02.38-2.86.52-.5.09-1.88.33-.94.17-2.46.42-.5.09-.07.01-.07.01-.07.01-.07.02-.07.01-.07.01-.07.01-.07.01-.07.01-.07.01-.07.02-.07.01-.07.01-.07.01-.07.01-.07.01-.07.01-.07.02-.07.01-.07.01-.07.01-.07.01-.07.01-.07.01-.07.01-.07.02-.07.01-.07.01-.07.01-.08.01-.22.04-.07.01-.07.01-.07.01-.07.01-.28.05h-.02l-.08.01-.07.01-.07.01-.07.01-.07.01-.07.01-.23.04-.07.01-.07.01-.07.01-.08.01-.07.01-.07.01-.07.01-.08.01-.07.02-.07.01-.07.01-.07.01-.08.01-.07.01-1.48.24-2.29.35-.09.02-3.12.48-2.12.31-1.76.26-2.28.32h-.02l-.19.03-3.25.45-.47.06-1.57.21-2.11.28-1.25.17-1.05.13-.16.02-3.37.42-2.15.26-2.01.24-2.39.28-.3.04-3.48.4-.43.05-1.14.12-3.14.34-1 .11-.68.07-4.13.42-.56.06-1.73.17-2.26.22-1.46.14-.99.09-.46.04-3.69.34-.38.04-3.35.3-.59.05-1.65.14-1.11.09-.41.04-3.8.31-.35.03-1.35.1-3.06.24-1.34.1-.96.07-3.88.28-.65.05-.32.02-1.51.1-3.23.22-1.14.08-.92.06-4.73.3-.29.02-5.07.3-.94.06-.66.04-5.15.28-.25.01-1.2.06-3.63.18-1.3.06-1.02.05-4.96.22-.22.01-5.75.23-.49.02-.49.02-5.17.19-.46.02-.18.01-.87.03-4.83.15-.65.02-.72.02-5.55.15h-.28l-5.83.13-.47.01-.59.01-5.82.11h-.48l-5.64.08-.52.01h-.37l-5.17.06-1 .01h-.04l-1.55.01-3.96.03h-2.25l-5.54.01V572.25c94.94 0 178.5-8.43 227.15-21.2z" class="fil1"/><path d="M130.78 147.99c-.07-.44-.11-.89-.11-1.33 0-25.78 120.58-46.67 269.33-46.67s269.33 20.89 269.33 46.67c0 .44-.04.89-.11 1.33-4.07 25.16-123.04 45.33-269.22 45.33s-265.15-20.18-269.22-45.33z" class="fil2"/></g></svg>